<svg width="57" height="41" fill="none" xmlns="http://www.w3.org/2000/svg">
    <path d="M6.796 20.095C1.2 24.675.511 5.186.448.649c6.34 0 12.451-.538 18.33 1.723 3.294 1.267 7.988 5.856 11.369 5.856 4.701 0 11.212 2.22 14.737 5.474 2.814 2.598 7.011 3.113 8.92 6.929l.036.074c1.616 3.23 3.102 6.203 3.102 9.878 0 3.575-1.234 5.063-3.79 7.618-2.256 2.256-8.344 2.627-10.68 0-2.34-2.633-3.066-3.786-5.665-1.187-1.772 1.772-8.048.916-9.307-1.225-1.494-2.54-3.163-3.488-3.828-6.737-1.327-6.489-2.518-2.22-6.847-2.22-3.888 0-4.1-1.051-6.325-3.832-.437-.546-.21-2.266-.259-2.905-.073-.96-.741-1.187-1.454-1.187-.413-.928-.872.271-1.99 1.187z" fill="#FDFDFD"/>
</svg>
