<svg width="33" height="35" viewBox="0 0 33 35" fill="none" xmlns="http://www.w3.org/2000/svg">
<path d="M31.8982 12.4006H22.7187L19.3967 16.0953C18.9891 16.5506 18.5045 16.9115 17.9708 17.1572C17.4371 17.4029 16.8649 17.5285 16.2873 17.5268C15.1103 17.5268 14.0067 17.017 13.1743 16.0933C12.7651 15.6403 12.4406 15.1016 12.2194 14.5085C11.9982 13.9153 11.8847 13.2793 11.8855 12.6371C11.8855 12.5576 11.9038 12.4801 11.9057 12.4006H1.1C0.808262 12.4006 0.528473 12.5295 0.322183 12.7589C0.115893 12.9883 0 13.2995 0 13.624V18.5177H33V13.624C33 13.4632 32.9715 13.3039 32.9161 13.1553C32.8607 13.0068 32.7795 12.8718 32.6772 12.7582C32.5748 12.6446 32.4534 12.5545 32.3197 12.4931C32.186 12.4318 32.0428 12.4003 31.8982 12.4006ZM17.908 14.4376L27.1755 4.13017C27.278 4.01681 27.3594 3.8821 27.4151 3.73372C27.4708 3.58534 27.4996 3.42621 27.5 3.26544C27.5003 3.10466 27.4721 2.94538 27.4171 2.79671C27.3621 2.64805 27.2812 2.5129 27.1792 2.39901L25.4925 0.523082C25.2854 0.29422 25.0053 0.165771 24.7133 0.165771C24.4214 0.165771 24.1413 0.29422 23.9342 0.523082L14.6667 10.8325C14.2368 11.3106 13.9954 11.959 13.9954 12.6351C13.9954 13.3111 14.2368 13.9595 14.6667 14.4376C15.0965 14.9157 15.6795 15.1842 16.2873 15.1842C16.8952 15.1842 17.4782 14.9157 17.908 14.4376ZM5.1755 33.3437C5.35333 34.1614 6.11967 34.8302 6.875 34.8302H26.125C26.8803 34.8302 27.6467 34.1614 27.8245 33.3437L30.6167 20.5568H2.38333L5.1755 33.3437Z" fill="white"/>
</svg>
