<svg width="22" height="16" fill="none" xmlns="http://www.w3.org/2000/svg">
    <path d="M21.165 1.509c-.44-1.145-1.342-.963-2.32-.766-.583.122-3.184.88-7.285 5.216-1.706 1.797-2.828 3.23-3.571 4.321a22.091 22.091 0 00-1.516-1.69 21.832 21.832 0 00-3.624-2.873 1.666 1.666 0 00-2.29.553 1.67 1.67 0 00.546 2.29c.015.007 1.623 1 3.002 2.388 1.41 1.41 2.692 3.32 2.707 3.343.31.47.834.743 1.387.743a1.66 1.66 0 001.615-1.258c.008-.016.667-1.843 4.147-5.512 2.805-2.964 4.678-3.905 5.33-4.162h.022s.023-.008.06-.03c.115-.046.175-.061.175-.061-.03.007-.045.007-.045.007v-.007c.303-.13.864-.372.872-.38.841-.363 1.122-1.273.788-2.122z" fill="#fff"/>
</svg>
