<svg width="338" height="201" fill="none" xmlns="http://www.w3.org/2000/svg">
    <path d="M14.604 68.869c.925-5.35 2.006-10.248 3.337-14.69l.958.287c1.553-5.182 3.443-9.706 5.813-13.591l-.854-.521c2.702-4.428 6.03-8.073 10.204-10.935l.566.824c3.712-2.546 8.133-4.468 13.447-5.752l-.235-.972c4.382-1.06 9.34-1.687 14.96-1.884l.035 1c4.512-.159 9.465-.037 14.908.368l.074-.998c4.644.346 9.635.894 15.002 1.647l-.139.99c4.65.652 9.587 1.458 14.829 2.419l.18-.984c4.682.858 9.606 1.838 14.783 2.94l-.208.978c4.7 1 9.61 2.102 14.742 3.305l.228-.973c4.684 1.098 9.552 2.28 14.61 3.546l-.242.97c2.413.604 4.869 1.227 7.37 1.87 2.646.68 5.253 1.354 7.821 2.024l.253-.967a1745.013 1745.013 0 0115.434 4.1l-.261.966a1368.708 1368.708 0 0115.339 4.246l.273-.962c5.345 1.514 10.483 3.01 15.422 4.49l-.287.957a806.853 806.853 0 0115.233 4.723l.306-.952a596.949 596.949 0 0115.18 5.093l-.332.944a424.54 424.54 0 0114.924 5.541l.367-.93c5.283 2.082 10.182 4.16 14.715 6.242l-.417.909c5.213 2.394 9.935 4.794 14.197 7.215l.494-.87c5.062 2.877 9.487 5.787 13.325 8.76l-.612.791c4.591 3.558 8.314 7.194 11.266 10.953l.787-.617c3.493 4.45 5.946 9.092 7.493 14.006l-.954.301c1.523 4.837 2.151 9.96 2.011 15.459l1 .026c-.127 4.966-.871 10.214-2.133 15.8l-.975-.22a133.708 133.708 0 01-2 7.709c-.736 2.542-1.631 4.878-2.676 7.019l.898.439c-2.383 4.883-5.539 8.814-9.382 11.909l-.627-.779c-3.738 3.01-8.161 5.22-13.206 6.732l.288.958c-4.57 1.369-9.615 2.171-15.075 2.487l-.057-.998c-4.737.275-9.799.18-15.15-.23l-.076.997c-4.856-.373-9.937-1.003-15.214-1.85l.158-.987c-4.831-.776-9.83-1.735-14.974-2.845l-.211.977a429.768 429.768 0 01-14.901-3.514l.246-.969a648.103 648.103 0 01-14.774-3.945l-.268.963a1013.15 1013.15 0 01-14.721-4.234l.283-.959c-4.832-1.426-9.72-2.898-14.65-4.397l-.291.956a5650.039 5650.039 0 01-14.462-4.425l-.176-.054.293-.956a5621.387 5621.387 0 00-14.645-4.481l-.291.956c-4.88-1.483-9.772-2.958-14.665-4.405l.284-.959a1225.414 1225.414 0 00-14.266-4.134l-.273.962c-4.823-1.367-9.424-2.64-13.813-3.836l.262-.965a2202.89 2202.89 0 00-13.832-3.714l-.256.967c-2.058-.546-4.06-1.076-6.01-1.591-2.703-.715-5.303-1.403-7.803-2.069l.257-.966c-5-1.332-9.593-2.578-13.814-3.785l-.275.962c-5.068-1.45-9.602-2.845-13.655-4.27l.332-.944c-5.07-1.782-9.35-3.601-12.959-5.615l-.487.873c-4.62-2.58-8.193-5.494-10.92-9.073l.795-.606c-2.607-3.42-4.43-7.493-5.64-12.57l-.973.231c-.97-4.07-1.547-8.742-1.826-14.172l.999-.051a164.01 164.01 0 01-.198-7.074c.357-2.55.736-5.01 1.145-7.377l-.985-.17z" stroke="#F47F12" stroke-width="2" stroke-linejoin="round" stroke-dasharray="15 15"/>
</svg>
