<svg width="443" height="276" fill="none" xmlns="http://www.w3.org/2000/svg">
    <path d="M1 83c20.169-31.992 49.488-38 84.889-38 13.84 0 31.56 3.741 44.111 10.5 12.774 6.878 21 8.5 38.778 13.944 18.026 2.377 35.526 7.16 53.666 8.556 19.113 1.47 56.671-7.779 69.056-26.556 5.862-8.887 8.953-20.498 3.278-31.444C281.59-5.434 235.717-.263 215.667 9.667 198.971 17.935 185.372 40.913 185 59.5c-.595 29.734-1.588 54.76 4.222 83.944 4.818 24.203 17.705 43.964 29.889 64.778C232.977 231.91 251.894 243.942 274 259c11.021 7.507 31.595 12.534 45 13.555 16.932 1.291 40.491 3.641 56.667-2.888 9.319-3.762 24.714-13.91 32.833-19.667 7.285-5.166 9.751-8.559 15.611-15.445C430.033 227.597 434 220 437.778 211.5c.281-3.655 4.222-17 4.222-17" stroke="#F47F12" stroke-width="2" stroke-linecap="round" stroke-linejoin="round" stroke-dasharray="12 12"/>
</svg>
