<?xml version="1.0" encoding="utf-8"?><svg xmlns="http://www.w3.org/2000/svg" xmlns:xlink="http://www.w3.org/1999/xlink"><symbol viewBox="0 0 12 12" id="back-arrow" xmlns="http://www.w3.org/2000/svg"><path d="M.47 5.47a.75.75 0 000 1.06l4.773 4.773a.75.75 0 101.06-1.06L2.061 6l4.242-4.243a.75.75 0 00-1.06-1.06L.47 5.47zM12 5.25H1v1.5h11v-1.5z"/></symbol><symbol viewBox="0 0 33 35" id="cart" xmlns="http://www.w3.org/2000/svg"><path d="M31.898 12.4h-9.18l-3.321 3.695a4.374 4.374 0 01-1.426 1.062 3.991 3.991 0 01-1.684.37c-1.177 0-2.28-.51-3.113-1.434a4.934 4.934 0 01-.955-1.585 5.345 5.345 0 01-.333-1.87c0-.08.018-.158.02-.237H1.1c-.292 0-.572.129-.778.358-.206.23-.322.54-.322.865v4.894h33v-4.894c0-.16-.029-.32-.084-.469a1.241 1.241 0 00-.239-.397 1.101 1.101 0 00-.357-.265 1.005 1.005 0 00-.422-.092zm-13.99 2.038L27.175 4.13a1.24 1.24 0 00.24-.396 1.344 1.344 0 00.002-.937 1.241 1.241 0 00-.238-.398L25.493.523a1.052 1.052 0 00-.78-.357 1.05 1.05 0 00-.779.357l-9.267 10.31a2.701 2.701 0 00-.672 1.802c0 .676.242 1.325.672 1.803.43.478 1.013.746 1.62.746.608 0 1.191-.268 1.621-.746zM5.175 33.344c.178.817.945 1.486 1.7 1.486h19.25c.755 0 1.522-.669 1.7-1.486l2.792-12.787H2.383l2.793 12.787z"/></symbol><symbol viewBox="0 0 34 39" id="catalog" xmlns="http://www.w3.org/2000/svg"><path d="M25 38.219h8.333v-9.318H25v9.318zm0-13.978h8.333v-9.318H25v9.318zM12.5 10.264h8.333V.946H12.5v9.318zm12.5 0h8.333V.946H25v9.318zM12.5 24.24h8.333v-9.318H12.5v9.318zm-12.5 0h8.333v-9.318H0v9.318zm0 13.98h8.333v-9.318H0v9.318zm12.5 0h8.333v-9.318H12.5v9.318zM0 10.264h8.333V.946H0v9.318z"/></symbol><symbol viewBox="0 0 30 26" id="email" xmlns="http://www.w3.org/2000/svg"><path d="M26.25 0H3.75C2.756.001 1.803.433 1.1 1.2.396 1.967 0 3.007 0 4.092v17.535c.001 1.085.396 2.125 1.1 2.892.703.767 1.656 1.199 2.65 1.2h22.5c.994-.001 1.947-.433 2.65-1.2.704-.767 1.099-1.807 1.1-2.892V4.092c-.001-1.085-.396-2.125-1.1-2.892C28.198.433 27.245 0 26.25 0zm-.95 6.768l-9.642 8.183c-.188.16-.42.246-.658.246-.238 0-.47-.086-.658-.246L4.7 6.768a1.143 1.143 0 01-.28-.344 1.272 1.272 0 01-.108-.895c.036-.15.1-.29.187-.411.088-.123.196-.225.32-.301a.986.986 0 01.821-.106c.137.043.264.115.375.211L15 12.547l8.985-7.625c.225-.185.507-.266.787-.226.279.04.532.2.705.442a1.247 1.247 0 01-.177 1.63z"/></symbol><symbol viewBox="0 0 36 37" id="instagram-footer" xmlns="http://www.w3.org/2000/svg"><path d="M26.98 15.894a8.98 8.98 0 01-17.96 0A8.93 8.93 0 019.918 12H0v21a3.51 3.51 0 003.5 3.5h29A3.51 3.51 0 0036 33V12h-9.918a8.924 8.924 0 01.898 3.894zM32.5 0h-29A3.51 3.51 0 000 3.5v7h10.832a8.956 8.956 0 0114.335 0H36v-7A3.51 3.51 0 0032.5 0zM2.878 8.858H1.575V3.81a2.127 2.127 0 011.303-1.96v7.008zm2.135 0H3.779V1.684h1.234v7.174zm2.135 0H5.912V1.684h1.234v7.174zM9.28 3.81v5.048H8.046V1.684H9.28v2.127zm24.895 2.921a2.127 2.127 0 01-2.126 2.127h-3.454a2.126 2.126 0 01-2.127-2.127v-2.92a2.126 2.126 0 012.127-2.127h3.454a2.125 2.125 0 012.126 2.127v2.92z"/><path d="M18 23.824a7.91 7.91 0 10-.002-15.82A7.91 7.91 0 0018 23.824zm0-14.212a6.302 6.302 0 110 12.605 6.302 6.302 0 010-12.605z"/></symbol><symbol viewBox="0 0 25 42" id="next-arrow" xmlns="http://www.w3.org/2000/svg"><path d="M24.313 3.688L20.625 0 0 20.625 20.625 41.25l3.688-3.688L7.375 20.625 24.313 3.687z"/></symbol><symbol viewBox="0 0 30 35" id="phone" xmlns="http://www.w3.org/2000/svg"><path d="M6.033 15.184c2.4 5.45 6.267 9.899 10.984 12.691l3.666-4.237c.45-.52 1.117-.693 1.7-.462a16.693 16.693 0 005.95 1.098c.917 0 1.667.866 1.667 1.926v6.72c0 1.06-.75 1.926-1.667 1.926C12.683 34.846 0 20.191 0 2.108 0 1.048.75.182 1.667.182H7.5c.917 0 1.667.867 1.667 1.926a25 25 0 00.95 6.875c.183.674.05 1.425-.417 1.964l-3.667 4.237z"/></symbol><symbol viewBox="0 0 25 42" id="prev-arrow" xmlns="http://www.w3.org/2000/svg"><path d="M0 3.688L3.688 0l20.625 20.625L3.688 41.25 0 37.562l16.938-16.937L0 3.687z"/></symbol><symbol viewBox="0 0 43 48" id="rocket" xmlns="http://www.w3.org/2000/svg"><path d="M23.583 47.033l-3.395-8.923c3.27-1.35 6.333-3.168 9.166-5.288l-5.77 14.21zM7.98 24.459L0 20.662l12.708-6.453c-1.896 3.168-3.52 6.592-4.729 10.25zM41.25.907S30.937-4.034 19.146 9.153c-4.563 5.102-7.292 10.717-9.063 15.632-.583 1.747-.187 3.657.959 4.962l4.437 4.939c1.146 1.304 2.854 1.724 4.417 1.072 5.247-2.238 10.011-5.691 13.979-10.134C45.667 12.438 41.25.907 41.25.907zm-14.73 16.47c-1.624-1.817-1.624-4.776 0-6.593 1.626-1.817 4.272-1.817 5.897 0 1.604 1.817 1.625 4.776 0 6.593-1.625 1.817-4.271 1.817-5.896 0zm-11.79 16.47l-2.938-3.285 2.937 3.285zM9.23 46.59l7.582-8.48a6.08 6.08 0 01-2.02-1.048l-8.5 9.528h2.937zm-8.834 0h2.937l9.938-11.089-2.959-3.284L.396 43.305v3.285zm0-6.593l8.52-9.504a7.292 7.292 0 01-.937-2.26l-7.583 8.48v3.284z"/></symbol><symbol viewBox="0 0 40 47" id="toy" xmlns="http://www.w3.org/2000/svg"><path d="M1.358 27.002c1.208-3.215 2.896-5.591 4.146-6.104-.021-1.863.291-3.028.812-3.96 0-.07-.125-.839.334-1.794C6.962 6.758 11.837.118 19.733.118s12.77 6.64 13.083 15.026c.459.955.334 1.724.334 1.794.52.932.833 2.097.812 3.96 1.25.513 2.938 2.889 4.146 6.127 1.562 4.1 1.812 8.037.562 8.736-.854.466-2.208-.699-3.479-2.749-.5 2.283-1.75 4.38-3.52 6.034 1.874.769 3.083 2.027 3.083 3.448 0 2.33-3.292 4.216-7.334 4.216-3.666 0-6.646-1.537-7.25-3.494h-.875c-.604 1.957-3.583 3.494-7.25 3.494-4.041 0-7.333-1.887-7.333-4.216 0-1.421 1.208-2.68 3.083-3.448-1.77-1.654-3.02-3.75-3.52-6.034-1.271 2.05-2.625 3.215-3.48 2.75-1.25-.7-1-4.637.563-8.76z"/></symbol><symbol viewBox="0 0 39 42" id="vk-footer" xmlns="http://www.w3.org/2000/svg"><path d="M25.492 0H13.527C2.6 0 0 2.777 0 14.431v12.784c0 11.673 2.58 14.452 13.508 14.452h11.965C36.399 41.667 39 38.91 39 27.235V14.452C39 2.777 36.42 0 25.492 0zm5.993 29.73H28.64c-1.077 0-1.4-.932-3.33-2.995-1.686-1.735-2.397-1.952-2.825-1.952-.588 0-.75.173-.75 1.042v2.733c0 .74-.224 1.173-2.032 1.173a10.602 10.602 0 01-4.964-1.661 11.49 11.49 0 01-3.71-3.895C8.82 21.237 7.283 17.79 6.54 14.106c0-.456.162-.868.975-.868h2.843c.732 0 .995.347 1.282 1.15 1.38 4.341 3.736 8.116 4.691 8.116.367 0 .527-.173.527-1.15v-4.47c-.121-2.04-1.135-2.213-1.135-2.95a.77.77 0 01.232-.506.675.675 0 01.497-.19h4.47c.61 0 .813.325.813 1.106v6.033c0 .652.263.869.446.869.367 0 .65-.217 1.32-.933a25.392 25.392 0 003.495-6.209c.09-.269.259-.5.483-.656.223-.156.488-.23.755-.21h2.845c.852 0 1.034.456.852 1.106a38.627 38.627 0 01-3.818 7.01c-.306.5-.429.76 0 1.346.283.456 1.28 1.346 1.95 2.192a13.524 13.524 0 012.397 3.558c.243.846-.164 1.281-.975 1.281v-.002z"/></symbol></svg>