<?xml version="1.0" encoding="utf-8"?><svg xmlns="http://www.w3.org/2000/svg" xmlns:xlink="http://www.w3.org/1999/xlink"><symbol viewBox="0 0 33 35" id="cart" xmlns="http://www.w3.org/2000/svg"><path d="M31.898 12.4h-9.18l-3.321 3.695a4.374 4.374 0 01-1.426 1.062 3.991 3.991 0 01-1.684.37c-1.177 0-2.28-.51-3.113-1.434a4.934 4.934 0 01-.955-1.585 5.345 5.345 0 01-.333-1.87c0-.08.018-.158.02-.237H1.1c-.292 0-.572.129-.778.358-.206.23-.322.54-.322.865v4.894h33v-4.894c0-.16-.029-.32-.084-.469a1.241 1.241 0 00-.239-.397 1.101 1.101 0 00-.357-.265 1.005 1.005 0 00-.422-.092zm-13.99 2.038L27.175 4.13a1.24 1.24 0 00.24-.396 1.344 1.344 0 00.002-.937 1.241 1.241 0 00-.238-.398L25.493.523a1.052 1.052 0 00-.78-.357 1.05 1.05 0 00-.779.357l-9.267 10.31a2.701 2.701 0 00-.672 1.802c0 .676.242 1.325.672 1.803.43.478 1.013.746 1.62.746.608 0 1.191-.268 1.621-.746zM5.175 33.344c.178.817.945 1.486 1.7 1.486h19.25c.755 0 1.522-.669 1.7-1.486l2.792-12.787H2.383l2.793 12.787z"/></symbol><symbol viewBox="0 0 30 35" id="phone" xmlns="http://www.w3.org/2000/svg"><path d="M6.033 15.184c2.4 5.45 6.267 9.899 10.984 12.691l3.666-4.237c.45-.52 1.117-.693 1.7-.462a16.693 16.693 0 005.95 1.098c.917 0 1.667.866 1.667 1.926v6.72c0 1.06-.75 1.926-1.667 1.926C12.683 34.846 0 20.191 0 2.108 0 1.048.75.182 1.667.182H7.5c.917 0 1.667.867 1.667 1.926a25 25 0 00.95 6.875c.183.674.05 1.425-.417 1.964l-3.667 4.237z"/></symbol></svg>