<svg width="22" height="16" viewBox="0 0 22 16" fill="none" xmlns="http://www.w3.org/2000/svg">
<path d="M21.1651 1.50894C20.7254 0.364177 19.8232 0.546127 18.8452 0.743239C18.2615 0.864538 15.6611 1.62266 11.5597 5.95911C9.8539 7.75586 8.73188 9.18871 7.98892 10.2804C7.53405 9.72698 7.01853 9.12806 6.47268 8.58979C4.79723 6.91435 2.92467 5.762 2.84886 5.71651C2.068 5.2389 1.04453 5.4815 0.559337 6.26994C0.0817207 7.05081 0.324319 8.07427 1.10518 8.55947C1.12035 8.56705 2.72756 9.56019 4.10734 10.9476C5.51745 12.3577 6.79867 14.2681 6.81384 14.2909C7.12467 14.7609 7.64777 15.0338 8.2012 15.0338C8.29217 15.0338 8.39073 15.0262 8.48928 15.0111C9.14127 14.8974 9.65679 14.4122 9.816 13.7753C9.82358 13.7602 10.4831 11.9331 13.9629 8.2638C16.768 5.29955 18.6405 4.35948 19.2925 4.10172C19.3001 4.10172 19.3001 4.10172 19.3153 4.10172C19.3153 4.10172 19.338 4.09413 19.3759 4.07139C19.4896 4.0259 19.5503 4.01074 19.5503 4.01074C19.5199 4.01832 19.5048 4.01832 19.5048 4.01832V4.01074C19.808 3.88186 20.369 3.63926 20.3766 3.63168C21.2181 3.26778 21.4986 2.35804 21.1651 1.50894Z" fill="white"/>
</svg>
