<svg width="338" height="201" viewBox="0 0 338 201" fill="none" xmlns="http://www.w3.org/2000/svg">
<path d="M14.6039 68.869C15.5289 63.5181 16.6095 58.6213 17.9413 54.1785L18.8992 54.4657C20.4525 49.2839 22.3417 44.7597 24.7118 40.8748L23.8582 40.354C26.5597 35.9261 29.8889 32.2811 34.0622 29.4187L34.6279 30.2434C38.34 27.6974 42.761 25.7752 48.0749 24.4909L47.84 23.5188C52.2225 22.4596 57.1796 21.8316 62.7999 21.6347L62.8349 22.6341C67.3465 22.476 72.2996 22.5981 77.7432 23.0026L77.8173 22.0054C82.4608 22.3505 87.4517 22.8993 92.819 23.652L92.6801 24.6423C97.3304 25.2944 102.267 26.1004 107.509 27.0605L107.689 26.0769C112.371 26.9346 117.295 27.9146 122.472 29.0169L122.264 29.995C126.964 30.9955 131.874 32.0972 137.006 33.3001L137.234 32.3265C141.918 33.4246 146.786 34.6068 151.844 35.873L151.602 36.843C154.015 37.447 156.471 38.0702 158.972 38.7126C161.618 39.3921 164.225 40.067 166.793 40.7373L167.046 39.7697C172.353 41.155 177.497 42.5213 182.48 43.8709L182.219 44.8361C187.512 46.2694 192.623 47.6837 197.558 49.0819L197.831 48.1198C203.176 49.6339 208.314 51.1293 213.253 52.6094L212.966 53.5673C218.273 55.1579 223.348 56.7305 228.199 58.2897L228.505 57.3377C233.83 59.0494 238.887 60.7452 243.685 62.431L243.353 63.3745C248.64 65.232 253.61 67.0767 258.277 68.9161L258.644 67.9858C263.927 70.0683 268.826 72.1452 273.359 74.2278L272.942 75.1365C278.155 77.5315 282.877 79.9311 287.139 82.3523L287.633 81.4828C292.695 84.3586 297.12 87.2691 300.958 90.2429L300.346 91.0334C304.937 94.5911 308.66 98.2265 311.612 101.986L312.399 101.369C315.892 105.819 318.345 110.461 319.892 115.375L318.938 115.676C320.461 120.513 321.089 125.636 320.949 131.135L321.949 131.161C321.822 136.127 321.078 141.375 319.816 146.961L318.841 146.741C318.277 149.237 317.607 151.805 316.841 154.45C316.105 156.992 315.21 159.328 314.165 161.469L315.063 161.908C312.68 166.791 309.524 170.722 305.681 173.817L305.054 173.038C301.316 176.048 296.893 178.258 291.848 179.77L292.136 180.728C287.566 182.097 282.521 182.899 277.061 183.215L277.004 182.217C272.267 182.492 267.205 182.397 261.854 181.987L261.778 182.984C256.922 182.611 251.841 181.981 246.564 181.134L246.722 180.147C241.891 179.371 236.892 178.412 231.748 177.302L231.537 178.279C226.688 177.233 221.715 176.052 216.636 174.765L216.882 173.796C212.049 172.571 207.119 171.248 202.108 169.851L201.84 170.814C197.001 169.465 192.089 168.047 187.119 166.58L187.402 165.621C182.57 164.195 177.682 162.723 172.752 161.224L172.461 162.18C167.675 160.725 162.85 159.244 157.999 157.755C157.94 157.737 157.881 157.719 157.823 157.701L158.116 156.745C153.257 155.253 148.371 153.754 143.471 152.264L143.18 153.22C138.3 151.737 133.408 150.262 128.515 148.815L128.799 147.856C126.349 147.131 123.898 146.413 121.449 145.703C119.094 145.021 116.789 144.361 114.533 143.722L114.26 144.684C109.437 143.317 104.836 142.044 100.447 140.848L100.709 139.883C95.8416 138.557 91.2351 137.326 86.8775 136.169L86.621 137.136C84.5631 136.59 82.5605 136.06 80.6117 135.545C77.9079 134.83 75.3078 134.142 72.8078 133.476L73.0653 132.51C68.0657 131.178 63.4717 129.932 59.2506 128.725L58.9756 129.687C53.9084 128.237 49.3737 126.842 45.3208 125.417L45.6525 124.473C40.5825 122.691 36.3024 120.872 32.6943 118.858L32.2068 119.731C27.587 117.151 24.0137 114.237 21.2865 110.658L22.0819 110.052C19.4752 106.632 17.6523 102.559 16.4419 97.4815L15.4692 97.7134C14.4989 93.6431 13.9219 88.971 13.6432 83.5413L14.6419 83.49C14.5278 81.2669 14.464 78.9126 14.444 76.4157C14.801 73.8652 15.18 71.4066 15.5893 69.0394L14.6039 68.869Z" stroke="#F47F12" stroke-width="2" stroke-linejoin="round" stroke-dasharray="15 15"/>
</svg>
