<svg width="38" height="43" viewBox="0 0 38 43" fill="none" xmlns="http://www.w3.org/2000/svg">
<path d="M26.5519 17.1552C27.3019 21.7944 24.394 26.4124 20.057 27.4698C15.7199 28.5272 11.5959 25.6235 10.8459 20.9843C10.6346 19.677 10.7226 18.3746 11.0419 17.1504L2.36859 19.2649L5.54442 38.9087C5.83553 40.7094 7.45106 41.8469 9.13447 41.4365L34.495 35.2537C36.1784 34.8433 37.3175 33.0342 37.0264 31.2335L33.8506 11.5897L25.1777 13.7041C25.8771 14.7134 26.3469 15.8934 26.5519 17.1552Z" fill="#F47F12"/>
<path d="M28.5825 0.778406L3.40788 6.82291C1.73681 7.22414 0.607171 8.99766 0.897574 10.7641L1.95359 17.1874L11.3572 14.9295C12.4519 12.5926 14.4926 10.7563 17.0382 10.145C19.5839 9.53382 22.0504 10.288 23.8012 11.9417L33.2048 9.68386L32.1488 3.26055C31.8584 1.49414 30.2536 0.377176 28.5825 0.778406ZM4.20424 15.0808L3.07312 15.3524L2.31166 10.7207C2.24842 10.3363 2.29401 9.93468 2.44269 9.56621C2.59137 9.19774 2.83652 8.87886 3.14738 8.64957L4.20467 15.0807L4.20424 15.0808ZM6.05761 14.6358L4.98595 14.8931L3.90369 8.31012L4.97535 8.05281L6.05761 14.6358ZM7.91055 14.1909L6.83889 14.4482L5.75663 7.86523L6.82829 7.60792L7.91055 14.1909ZM9.00072 9.11464L9.76218 13.7463L8.69183 14.0033L7.60957 7.42033L8.67992 7.16333L9.00072 9.11464ZM31.0525 6.60611C31.0947 6.86228 31.0887 7.12742 31.0349 7.38639C30.9811 7.64536 30.8806 7.89308 30.739 8.11541C30.5975 8.33775 30.4177 8.53034 30.2099 8.68219C30.0022 8.83404 29.7705 8.94218 29.5282 9.00044L26.5293 9.72046C26.2869 9.77866 26.0386 9.78582 25.7986 9.74152C25.5585 9.69722 25.3314 9.60233 25.1302 9.46228C24.929 9.32223 24.7577 9.13975 24.6261 8.92527C24.4945 8.7108 24.405 8.46852 24.363 8.21228L23.9223 5.53192C23.8801 5.27571 23.8861 5.01053 23.9399 4.75152C23.9937 4.49252 24.0943 4.24477 24.2359 4.02241C24.3775 3.80006 24.5573 3.60747 24.7651 3.45563C24.973 3.3038 25.2047 3.19569 25.4471 3.13749L28.4459 2.41746C28.6883 2.35927 28.9366 2.35212 29.1766 2.39643C29.4167 2.44074 29.6437 2.53564 29.8449 2.67571C30.046 2.81577 30.2173 2.99826 30.3489 3.21275C30.4805 3.42724 30.5698 3.66952 30.6118 3.92575L31.0525 6.60611Z" fill="#F47F12"/>
<path d="M19.7705 26.3195C23.6102 25.3815 26.1847 21.2845 25.5211 17.1713C24.8575 13.0576 21.207 10.4813 17.3669 11.4194C13.5263 12.3576 10.9519 16.4546 11.6155 20.5683C12.2789 24.681 15.93 27.2577 19.7705 26.3195ZM17.6108 12.9341C20.6699 12.1867 23.5792 14.2383 24.1081 17.5165C24.6368 20.7943 22.5854 24.0581 19.5258 24.8056C16.4663 25.553 13.5574 23.5013 13.0286 20.2231C12.5001 16.9443 14.5517 13.6814 17.6108 12.9341Z" fill="#F47F12"/>
</svg>
