<svg width="443" height="276" viewBox="0 0 443 276" fill="none" xmlns="http://www.w3.org/2000/svg">
<path d="M1 82.9999C21.1688 51.0081 50.4884 44.9999 85.8889 44.9999C99.7297 44.9999 117.449 48.7414 130 55.4998C142.774 62.3778 151 63.9998 168.778 69.4444C186.804 71.8214 204.304 76.6045 222.444 77.9999C241.557 79.4701 279.115 70.2213 291.5 51.4444C297.362 42.5572 300.453 30.9456 294.778 19.9999C281.59 -5.43444 235.717 -0.263175 215.667 9.66658C198.971 17.9349 185.372 40.9133 185 59.4998C184.405 89.2341 183.412 114.26 189.222 143.444C194.04 167.647 206.927 187.408 219.111 208.222C232.977 231.91 251.894 243.942 274 259C285.021 266.507 305.595 271.534 319 272.555C335.932 273.846 359.491 276.196 375.667 269.667C384.986 265.905 400.381 255.757 408.5 250C415.785 244.834 418.251 241.441 424.111 234.555C430.033 227.597 434 220 437.778 211.5C438.059 207.845 442 194.5 442 194.5" stroke="#F47F12" stroke-width="2" stroke-linecap="round" stroke-linejoin="round" stroke-dasharray="12 12"/>
</svg>
