<svg width="90" height="55" viewBox="0 0 90 55" fill="none" xmlns="http://www.w3.org/2000/svg">
<path d="M86 41.2171C86 41.2171 67.6437 41.2171 45 41.2171C22.3563 41.2171 4 41.2171 4 41.2171C4 18.5735 22.3563 0.217133 45 0.217133C67.6437 0.217133 86 18.5735 86 41.2171Z" fill="#FF9C36"/>
<line y1="42" x2="90" y2="42" stroke="black" stroke-opacity="0.7" stroke-width="2"/>
<line x1="11" y1="46.5" x2="27" y2="46.5" stroke="black" stroke-opacity="0.5"/>
<line x1="63" y1="46.5" x2="79" y2="46.5" stroke="black" stroke-opacity="0.5"/>
<line x1="40" y1="54.5" x2="61" y2="54.5" stroke="black" stroke-opacity="0.5"/>
<line x1="30" y1="54.5" x2="36" y2="54.5" stroke="black" stroke-opacity="0.5"/>
<line x1="59" y1="50.5" x2="63" y2="50.5" stroke="black" stroke-opacity="0.5"/>
<line x1="67" y1="50.5" x2="71" y2="50.5" stroke="black" stroke-opacity="0.5"/>
<line x1="31" y1="46.5" x2="59" y2="46.5" stroke="black" stroke-opacity="0.5"/>
<line x1="19" y1="50.5" x2="56" y2="50.5" stroke="black" stroke-opacity="0.5"/>
</svg>
