<svg width="44" height="49" viewBox="0 0 44 49" fill="none" xmlns="http://www.w3.org/2000/svg">
<path d="M43.296 36.0307L37.1825 4.50383C36.7021 2.02672 34.4876 0.454216 32.2647 1.00853L4.04443 8.04566C1.72468 8.62412 0.37249 10.9751 0.873364 13.558L6.98691 45.0849C7.48822 47.6701 9.58496 49.1586 11.9047 48.5802L40.1249 41.5431C41.195 41.2744 42.1292 40.5437 42.7234 39.5108C43.3176 38.4779 43.5235 37.2267 43.296 36.0307ZM33.2434 25.8056C33.2434 25.8056 36.0147 27.7516 36.8036 28.7777C36.8246 28.7985 36.835 28.8195 36.8428 28.827C37.1537 29.198 37.2777 29.5212 37.2108 29.7976C37.1011 30.257 36.4958 30.6251 36.2794 30.698L32.247 31.7035C31.9646 31.7739 31.3639 31.8387 30.5478 31.4685C29.9211 31.181 29.2467 30.6149 28.5899 30.0634C27.6107 29.2452 26.7626 28.536 26.0808 28.706C25.9943 28.7273 25.9115 28.7647 25.8358 28.8167C25.3532 29.1306 24.855 30.1165 25.2808 32.3121C25.414 32.999 25.0058 33.5115 24.6629 33.597L22.8152 34.0578C22.1858 34.2147 18.8603 34.7867 15.2943 32.0898C10.9197 28.7896 6.09125 21.1855 6.0486 21.1182C5.74165 20.6258 6.10199 20.2267 6.55586 20.1135L10.6305 19.0974C11.1772 18.9611 11.4243 19.2866 11.6136 19.5865C11.8277 19.9273 12.6545 21.3123 13.857 22.802C15.8135 25.225 16.9061 26.1376 17.602 25.9641C17.732 25.9308 17.8524 25.861 17.9518 25.7612C18.7528 24.9736 17.8812 21.3948 17.6959 20.6572C17.6684 20.5153 17.3799 19.0386 16.7784 18.4449C16.344 18.015 15.7391 17.9604 15.3818 17.9716C15.4799 17.7216 15.6301 17.5012 15.8197 17.3289C16.3758 16.8267 17.4897 16.4969 18.6072 16.2183L19.2285 16.0633C20.4443 15.779 20.776 15.7884 21.2378 15.8031C22.1692 15.8187 22.3118 16.456 22.6567 18.66C22.755 19.287 22.8675 19.9979 23.0278 20.8244C23.0623 21.0023 23.0942 21.1997 23.1335 21.4024C23.3219 22.5264 23.5346 23.7978 24.341 24.1396C24.4448 24.1807 24.5568 24.1887 24.6648 24.1628C24.9109 24.1014 25.6472 23.9178 26.9011 19.5988C27.4515 17.6933 27.7412 15.5341 27.7588 15.3739C27.7981 15.1957 27.8728 15.0293 27.9774 14.8874C28.0691 14.8017 28.1784 14.7428 28.2952 14.7161L33.086 13.5214C33.6105 13.3906 33.9825 13.3899 34.0923 13.5963C34.2768 13.9256 34.3514 15.052 32.8029 18.8991L32.1081 20.5833C30.6857 23.9787 30.7145 24.1273 33.2434 25.8056Z" fill="#F47F12"/>
</svg>
